HIERARCHY
ROOT Hips
{
	OFFSET 0.000000 0.000000 0.000000 
	CHANNELS 6 Xposition Yposition Zposition Zrotation Yrotation Xrotation
	JOINT LeftUpLeg
	{
		OFFSET 1.363060 -1.794630 0.839290 
		CHANNELS 3 Zrotation Yrotation Xrotation
		JOINT LeftLeg
		{
			OFFSET 2.448110 -6.726130 0.000000 
			CHANNELS 3 Zrotation Yrotation Xrotation
			JOINT LeftFoot
			{
				OFFSET 2.562200 -7.039590 0.000000 
				CHANNELS 3 Zrotation Yrotation Xrotation
				JOINT LeftToeBase
				{
					OFFSET 0.157640 -0.433110 2.322550 
					CHANNELS 3 Zrotation Yrotation Xrotation
					End Site
					{
						OFFSET 0.000000 0.000000 0.000000 
					}
				}
			}
		}
	}
	JOINT RightUpLeg
	{
		OFFSET -1.305520 -1.794630 0.839290 
		CHANNELS 3 Zrotation Yrotation Xrotation
		JOINT RightLeg
		{
			OFFSET -2.542530 -6.985550 0.000000 
			CHANNELS 3 Zrotation Yrotation Xrotation
			JOINT RightFoot
			{
				OFFSET -2.568260 -7.056230 0.000000 
				CHANNELS 3 Zrotation Yrotation Xrotation
				JOINT RightToeBase
				{
					OFFSET -0.164730 -0.452590 2.363150 
					CHANNELS 3 Zrotation Yrotation Xrotation
					End Site
					{
						OFFSET 0.000000 0.000000 0.000000 
					}
				}
			}
		}
	}
	JOINT Spine
	{
		OFFSET 0.028270 2.035590 -0.193380 
		CHANNELS 3 Zrotation Yrotation Xrotation
		JOINT Spine1
		{
			OFFSET 0.056720 2.048850 -0.042750 
			CHANNELS 3 Zrotation Yrotation Xrotation
			JOINT Neck1
			{
				OFFSET -0.054170 1.746240 0.172020 
				CHANNELS 3 Zrotation Yrotation Xrotation
				JOINT Head
				{
					OFFSET 0.104070 1.761360 -0.123970 
					CHANNELS 3 Zrotation Yrotation Xrotation
					End Site
					{
						OFFSET 0.000000 0.000000 0.000000 
					}
				}
			}
			JOINT LeftArm
			{
				OFFSET 3.362410 1.200890 -0.311210 
				CHANNELS 3 Zrotation Yrotation Xrotation
				JOINT LeftForeArm
				{
					OFFSET 4.983000 -0.000000 -0.000000 
					CHANNELS 3 Zrotation Yrotation Xrotation
					JOINT LeftHand
					{
						OFFSET 3.483560 -0.000000 -0.000000 
						CHANNELS 3 Zrotation Yrotation Xrotation
						JOINT LeftHandIndex1
						{
							OFFSET 0.715260 -0.000000 -0.000000 
							CHANNELS 3 Zrotation Yrotation Xrotation
							End Site
							{
								OFFSET 0.000000 0.000000 0.000000 
							}
						}
					}
				}
			}
			JOINT RightArm
			{
				OFFSET -3.136600 1.374050 -0.404650 
				CHANNELS 3 Zrotation Yrotation Xrotation
				JOINT RightForeArm
				{
					OFFSET -5.241900 -0.000000 -0.000000 
					CHANNELS 3 Zrotation Yrotation Xrotation
					JOINT RightHand
					{
						OFFSET -3.444170 -0.000000 -0.000000 
						CHANNELS 3 Zrotation Yrotation Xrotation
						JOINT RightHandIndex1
						{
							OFFSET -0.622530 -0.000000 -0.000000 
							CHANNELS 3 Zrotation Yrotation Xrotation
							End Site
							{
								OFFSET 0.000000 0.000000 0.000000 
							}
						}
					}
				}
			}
		}
	}
}
MOTION
Frames: 7
Frame Time: 0.041667
-0.668668 17.549958 -24.508700 -174.566298 -43.293886 174.198915 -14.474580 7.584016 -1.923409 0.572928 7.880147 21.643758 -1.237153 8.108656 -10.370584 0.161400 -2.588600 -7.135500 23.994490 11.284479 -2.725566 -1.147621 -11.003833 30.087715 0.122827 -3.507871 -7.832595 -0.000600 -0.161500 0.443700 1.715509 -2.148027 -0.940718 -0.404282 -1.072521 6.469405 6.904913 -9.977157 17.718592 1.249800 -4.679200 7.973700 -82.186219 4.421012 18.887863 10.546223 -24.595615 -4.038528 -1.086735 -1.788316 -18.286866 -7.125000 0.000000 0.000000 53.975705 6.345061 47.796671 -66.742033 56.045074 -44.509939 1.647641 1.687759 -29.995841 7.125000 0.000000 0.000000 
-0.691859 17.548347 -24.477027 -174.542734 -42.923555 174.212974 -14.585978 7.742591 -1.969168 0.582237 7.898294 21.691858 -1.256226 8.222199 -10.570815 0.156300 -2.547100 -7.020300 23.902514 11.505080 -2.791693 -1.152234 -11.023995 30.126347 0.111367 -3.444768 -7.668063 -0.000400 -0.135100 0.371100 1.705211 -2.118481 -0.939711 -0.430190 -1.059824 6.501785 6.897442 -9.868360 17.816250 1.235700 -4.622000 8.041700 -82.093698 4.318698 18.946169 10.560155 -24.608910 -4.044875 -1.089929 -1.785897 -18.269419 -7.125000 0.000000 0.000000 53.496093 6.388042 48.469825 -68.256501 56.348124 -45.771621 1.604674 1.704560 -30.230252 7.125000 0.000000 0.000000 
-0.713976 17.546629 -24.445354 -174.494522 -42.540458 174.215907 -14.668671 7.924948 -2.041617 0.594453 7.920850 21.754793 -1.270617 8.316063 -10.759870 0.152400 -2.515600 -6.932800 23.833746 11.735294 -2.866727 -1.155552 -11.044974 30.162209 0.099764 -3.381134 -7.495934 -0.000300 -0.109200 0.300100 1.695897 -2.079494 -0.938394 -0.455083 -1.042181 6.531739 6.896448 -9.761091 17.906018 1.225600 -4.565800 8.101400 -81.993809 4.216080 19.022819 10.573608 -24.623215 -4.051106 -1.094246 -1.785075 -18.273048 -7.125000 0.000000 0.000000 53.025199 6.430248 49.119949 -69.857242 56.650256 -47.111288 1.561578 1.724366 -30.522567 7.125000 0.000000 0.000000 
-0.735556 17.544911 -24.413252 -174.419495 -42.163179 174.202862 -14.727816 8.110087 -2.129990 0.608875 7.947599 21.831285 -1.281361 8.393110 -10.936888 0.148900 -2.486700 -6.852800 23.785100 11.959629 -2.947007 -1.157881 -11.066001 30.195146 0.088875 -3.319272 -7.317921 -0.000200 -0.086800 0.238500 1.687200 -2.039194 -0.936586 -0.489023 -1.022934 6.560428 6.898475 -9.657274 17.989268 1.217400 -4.511200 8.155000 -81.886247 4.108031 19.078266 10.587800 -24.636845 -4.059077 -1.089078 -1.789041 -18.289489 -7.125000 0.000000 0.000000 52.563759 6.468866 49.735825 -71.541066 56.948662 -48.528384 1.525668 1.747515 -30.858636 7.125000 0.000000 0.000000 
-0.757137 17.543086 -24.380828 -174.360784 -41.800172 174.191301 -14.801070 8.292181 -2.210633 0.622803 7.974673 21.907603 -1.289453 8.460721 -11.109855 0.145000 -2.454100 -6.762400 23.718818 12.160445 -3.027805 -1.161809 -11.087659 30.233317 0.075033 -3.246274 -7.132209 -0.000100 -0.066400 0.182500 1.676800 -2.000581 -0.933248 -0.531943 -1.003805 6.591817 6.901382 -9.554582 18.069296 1.209000 -4.456800 8.204800 -81.763445 3.987094 19.099325 10.604789 -24.652426 -4.070988 -1.067459 -1.802609 -18.400116 -7.125000 0.000000 0.000000 52.114575 6.516787 50.318754 -73.282742 57.235649 -49.997218 1.494855 1.773213 -31.235276 7.125000 0.000000 0.000000 
-0.778717 17.540832 -24.348297 -174.301472 -41.432892 174.165470 -14.872145 8.483363 -2.272880 0.635982 7.998104 21.975395 -1.297687 8.528865 -11.281070 0.141000 -2.419800 -6.667400 23.654991 12.348700 -3.103199 -1.167678 -11.111348 30.279564 0.060110 -3.168457 -6.938684 -0.000000 -0.037300 0.102600 1.666136 -1.961591 -0.928282 -0.579596 -0.984322 6.624533 6.903666 -9.449233 18.148464 1.199800 -4.400900 8.253500 -81.638829 3.863549 19.064920 10.633573 -24.680633 -4.092023 -1.029437 -1.827146 -18.616403 -7.125000 0.000000 0.000000 51.677650 6.579721 50.875515 -75.065054 57.505836 -51.499747 1.470072 1.800087 -31.637654 7.125000 0.000000 0.000000 
-0.800727 17.538469 -24.315550 -174.291282 -41.090180 174.161830 -14.989449 8.659177 -2.312240 0.645595 8.017403 22.027435 -1.305416 8.596974 -11.453484 0.136000 -2.377000 -6.548700 23.540491 12.497667 -3.184373 -1.177241 -11.136513 30.337992 0.040944 -3.074378 -6.735736 0.000000 -0.003100 0.008500 1.653010 -1.932662 -0.922761 -0.629171 -0.969722 6.657199 6.905067 -9.341517 18.229252 1.190600 -4.344000 8.303100 -81.514524 3.739010 18.972761 10.671787 -24.718721 -4.120841 -0.976598 -1.860424 -18.908425 -7.125000 0.000000 0.000000 51.254953 6.662707 51.405783 -76.857699 57.752282 -53.006200 1.447913 1.825511 -32.040602 7.125000 0.000000 0.000000 
